# xmcd
#
# Track frame offsets: 
#        150
#        13027
#        24307
#        37775
#        51187
#        64125
#        74890
#        86792
#        99735
#        112617
#        124987
#        138570
#        150582
#        162097
#        174852
#        188280
#        199665
#        211682
#        222900
#        234177
#
# Disc length: 3280 seconds
#
# Revision: 6
# Processed by: cddbd v1.5.2PL0 Copyright (c) Steve Scherf et al.
# Submitted via: ExactAudioCopyFreeDBPlugin 1.0
#
DISCID=040cce14
DTITLE=Roberto Johnson - The Complete Recordings Disc 1
DYEAR=1990
DGENRE=Blues
TTITLE0=Kind Hearted Woman Blues (t.1)
TTITLE1=Kind Hearted Woman Blues (t.2)
TTITLE2=I Beleve I'll Dust My Broom
TTITLE3=Sweet Home Chicago
TTITLE4=Ramblin' On My Mind (t.1)
TTITLE5=Ramblin' On My Mind (t.2)
TTITLE6=When You Got A Good Friend (t.1)
TTITLE7=When You Got A Good Friend (t.2)
TTITLE8=Come On In My Kitchen (t.1)
TTITLE9=Come On In My Kitchen (t.2)
TTITLE10=Terraplane Blues
TTITLE11=Phonograph Blues (t.1)
TTITLE12=Phonograph Blues (t.2)
TTITLE13=32-20 Blues
TTITLE14=They're Red Hot
TTITLE15=Dead Shrimp Blues
TTITLE16=Cross Road Blues (t.1)
TTITLE17=Phonograph Blues (t.2)
TTITLE18=Walkin' Blues
TTITLE19=Last Fair Deal Gone Down
EXTD=YEAR: 1990
EXTT0=
EXTT1=
EXTT2=
EXTT3=
EXTT4=
EXTT5=
EXTT6=
EXTT7=
EXTT8=
EXTT9=
EXTT10=
EXTT11=
EXTT12=
EXTT13=
EXTT14=
EXTT15=
EXTT16=
EXTT17=
EXTT18=
EXTT19=
PLAYORDER=
